<svg width="24" height="24" version="1.1" viewBox="0 0 24 24" xmlns="http://www.w3.org/2000/svg">
 <path class="heroicon-ui" d="m16.913 15.57c0-0.6629-0.54079-1.2037-1.2037-1.2037-0.40123 0-0.69779 0.17445-0.90713 0.41867-0.61057 0.69779-1.1688 1.0641-2.041 1.0641-1.1165 0-1.9189-0.57568-2.355-1.6049h2.4597c0.48845 0 0.88968-0.38378 0.88968-0.87224 0-0.48845-0.40123-0.88968-0.88968-0.88968h-2.8435c-0.01745-0.17445-0.01745-0.36634-0.01745-0.57568s0-0.41867 0.01745-0.61057h2.8435c0.48845 0 0.88968-0.38378 0.88968-0.87224 0-0.48845-0.40123-0.88968-0.88968-0.88968h-2.4248c0.43612-0.95946 1.1862-1.5351 2.2155-1.5351 0.85479 0 1.4479 0.3489 2.0061 0.97691 0.17445 0.19189 0.47101 0.40123 0.92457 0.40123 0.69779 0 1.2909-0.55823 1.2909-1.256 0-0.40123-0.19189-0.73268-0.36634-0.90713-0.90713-0.95946-1.9887-1.6049-3.803-1.6049-2.5818 0-4.3612 1.6224-5.0764 3.9251h-0.85479c-0.48845 0-0.88968 0.40123-0.88968 0.88968 0 0.48845 0.40123 0.87224 0.88968 0.87224h0.52334c-0.017445 0.20934-0.017445 0.43612-0.017445 0.64546 0 0.19189 0 0.36634 0.017445 0.54079h-0.52334c-0.48845 0-0.88968 0.40123-0.88968 0.88968 0 0.48845 0.40123 0.87224 0.88968 0.87224h0.80246c0.69779 2.3899 2.512 3.9949 5.1811 3.9949 1.7619 0 2.9307-0.73268 3.8902-1.9015 0.12211-0.157 0.26167-0.45356 0.26167-0.76757zm-4.9133 6.4303c-5.5229 0-10-4.4772-10-10 0-5.5228 4.4771-10 10-10 5.5229 0 10 4.4772 10 10 0 5.5228-4.4771 10-10 10zm0-2c4.4183 0 8-3.5817 8-8 0-4.4183-3.5817-8-8-8s-8 3.5817-8 8c0 4.4183 3.5817 8 8 8z"/>
</svg>
