<svg xmlns="http://www.w3.org/2000/svg" viewBox="0 0 24 24" width="24" height="24"><path class="heroicon-ui" d="M12 22a10 10 0 1 1 0-20 10 10 0 0 1 0 20zM5.68 7.1A7.96 7.96 0 0 0 4.06 11H5a1 1 0 0 1 0 2h-.94a7.95 7.95 0 0 0 1.32 3.5A9.96 9.96 0 0 1 11 14.05V9a1 1 0 0 1 2 0v5.05a9.96 9.96 0 0 1 5.62 2.45 7.95 7.95 0 0 0 1.32-3.5H19a1 1 0 0 1 0-2h.94a7.96 7.96 0 0 0-1.62-3.9l-.66.66a1 1 0 1 1-1.42-1.42l.67-.66A7.96 7.96 0 0 0 13 4.06V5a1 1 0 0 1-2 0v-.94c-1.46.18-2.8.76-3.9 1.62l.66.66a1 1 0 0 1-1.42 1.42l-.66-.67zM6.71 18a7.97 7.97 0 0 0 10.58 0 7.97 7.97 0 0 0-10.58 0z"/></svg>