<svg xmlns="http://www.w3.org/2000/svg" viewBox="0 0 24 24" width="24" height="24"><path class="heroicon-ui" d="M7.7 6.3L9 7.58l4.3-4.3a1 1 0 0 1 1.4 1.42L10.42 9l4.3 4.3a1 1 0 0 1-1.42 1.4L9 10.42l-1.3 1.3a3 3 0 1 1-1.4-1.42L7.58 9l-1.3-1.3a3 3 0 1 1 1.42-1.4zM21 8a1 1 0 0 1 1 1v1a1 1 0 0 1-2 0 1 1 0 0 1 0-2h1zM4 20a1 1 0 0 1 0 2H3a1 1 0 0 1-1-1v-1a1 1 0 0 1 2 0zm17 2h-1a1 1 0 0 1 0-2 1 1 0 0 1 2 0v1a1 1 0 0 1-1 1zM14 8h2a1 1 0 0 1 0 2h-2a1 1 0 0 1 0-2zm7 5a1 1 0 0 1 1 1v2a1 1 0 0 1-2 0v-2a1 1 0 0 1 1-1zm-7 7h2a1 1 0 0 1 0 2h-2a1 1 0 0 1 0-2zm-6 0h2a1 1 0 0 1 0 2H8a1 1 0 0 1 0-2zm-2.3-6.3a1 1 0 1 0-1.4-1.4 1 1 0 0 0 1.4 1.4zM5 6a1 1 0 1 0 0-2 1 1 0 0 0 0 2z"/></svg>